<mxfile host="app.diagrams.net" modified="2024-06-06T02:28:14.721Z" agent="Mozilla/5.0 (Windows NT 10.0; Win64; x64; rv:126.0) Gecko/20100101 Firefox/126.0" etag="fulJQ8sZhbjbjGnuz0f3" version="24.4.13" type="github">
  <diagram name="Page-1" id="tA-DCPR7xs3mkb7LWjER">
    <mxGraphModel dx="2284" dy="754" grid="1" gridSize="10" guides="1" tooltips="1" connect="1" arrows="1" fold="1" page="1" pageScale="1" pageWidth="850" pageHeight="1100" math="0" shadow="0">
      <root>
        <mxCell id="0" />
        <mxCell id="1" parent="0" />
        <mxCell id="1GO8dZoF6yERBsI8h4hM-5" style="edgeStyle=orthogonalEdgeStyle;rounded=0;orthogonalLoop=1;jettySize=auto;html=1;exitX=1;exitY=0.5;exitDx=0;exitDy=0;entryX=0;entryY=0.5;entryDx=0;entryDy=0;endArrow=none;endFill=0;shape=link;" parent="1" source="1GO8dZoF6yERBsI8h4hM-2" target="1GO8dZoF6yERBsI8h4hM-4" edge="1">
          <mxGeometry relative="1" as="geometry" />
        </mxCell>
        <mxCell id="1GO8dZoF6yERBsI8h4hM-31" style="edgeStyle=orthogonalEdgeStyle;rounded=0;orthogonalLoop=1;jettySize=auto;html=1;exitX=0.5;exitY=1;exitDx=0;exitDy=0;shape=link;" parent="1" source="1GO8dZoF6yERBsI8h4hM-2" target="1GO8dZoF6yERBsI8h4hM-30" edge="1">
          <mxGeometry relative="1" as="geometry" />
        </mxCell>
        <mxCell id="AokPKxqXHjxlIk5qfDZU-5" style="edgeStyle=orthogonalEdgeStyle;rounded=0;orthogonalLoop=1;jettySize=auto;html=1;exitX=0;exitY=0.5;exitDx=0;exitDy=0;entryX=1;entryY=0.5;entryDx=0;entryDy=0;shape=link;" edge="1" parent="1" source="1GO8dZoF6yERBsI8h4hM-2" target="AokPKxqXHjxlIk5qfDZU-4">
          <mxGeometry relative="1" as="geometry" />
        </mxCell>
        <mxCell id="1GO8dZoF6yERBsI8h4hM-2" value="&lt;font style=&quot;font-size: 18px;&quot;&gt;Business&lt;/font&gt;" style="rounded=0;whiteSpace=wrap;html=1;" parent="1" vertex="1">
          <mxGeometry x="40" y="360" width="120" height="40" as="geometry" />
        </mxCell>
        <mxCell id="1GO8dZoF6yERBsI8h4hM-3" value="&lt;font style=&quot;font-size: 18px;&quot;&gt;Address&lt;/font&gt;" style="rounded=0;whiteSpace=wrap;html=1;" parent="1" vertex="1">
          <mxGeometry x="280" y="360" width="120" height="40" as="geometry" />
        </mxCell>
        <mxCell id="1GO8dZoF6yERBsI8h4hM-6" style="edgeStyle=orthogonalEdgeStyle;rounded=0;orthogonalLoop=1;jettySize=auto;html=1;exitX=1;exitY=0.5;exitDx=0;exitDy=0;entryX=0;entryY=0.5;entryDx=0;entryDy=0;strokeColor=none;endArrow=none;endFill=0;" parent="1" source="1GO8dZoF6yERBsI8h4hM-4" target="1GO8dZoF6yERBsI8h4hM-3" edge="1">
          <mxGeometry relative="1" as="geometry" />
        </mxCell>
        <mxCell id="1GO8dZoF6yERBsI8h4hM-7" style="edgeStyle=orthogonalEdgeStyle;rounded=0;orthogonalLoop=1;jettySize=auto;html=1;exitX=1;exitY=0.5;exitDx=0;exitDy=0;endArrow=none;endFill=0;" parent="1" source="1GO8dZoF6yERBsI8h4hM-4" edge="1">
          <mxGeometry relative="1" as="geometry">
            <mxPoint x="280" y="380" as="targetPoint" />
          </mxGeometry>
        </mxCell>
        <mxCell id="1GO8dZoF6yERBsI8h4hM-4" value="&lt;div&gt;&lt;font style=&quot;font-size: 18px;&quot;&gt;Has&lt;/font&gt;&lt;/div&gt;&lt;div&gt;&lt;font style=&quot;font-size: 18px;&quot;&gt;a&lt;br&gt;&lt;/font&gt;&lt;/div&gt;" style="rhombus;whiteSpace=wrap;html=1;" parent="1" vertex="1">
          <mxGeometry x="180" y="340" width="80" height="80" as="geometry" />
        </mxCell>
        <mxCell id="1GO8dZoF6yERBsI8h4hM-9" value="&lt;font style=&quot;font-size: 17px;&quot;&gt;Address&lt;/font&gt;" style="ellipse;whiteSpace=wrap;html=1;" parent="1" vertex="1">
          <mxGeometry x="220" y="300" width="90" height="40" as="geometry" />
        </mxCell>
        <mxCell id="1GO8dZoF6yERBsI8h4hM-10" value="&lt;font size=&quot;1&quot;&gt;&lt;u style=&quot;font-size: 15px;&quot;&gt;business_id&lt;/u&gt;&lt;/font&gt;" style="ellipse;whiteSpace=wrap;html=1;" parent="1" vertex="1">
          <mxGeometry x="-30" y="290" width="90" height="40" as="geometry" />
        </mxCell>
        <mxCell id="1GO8dZoF6yERBsI8h4hM-12" value="" style="endArrow=none;html=1;rounded=0;exitX=0;exitY=0;exitDx=0;exitDy=0;" parent="1" source="1GO8dZoF6yERBsI8h4hM-2" target="1GO8dZoF6yERBsI8h4hM-10" edge="1">
          <mxGeometry width="50" height="50" relative="1" as="geometry">
            <mxPoint x="250" y="410" as="sourcePoint" />
            <mxPoint x="300" y="360" as="targetPoint" />
          </mxGeometry>
        </mxCell>
        <mxCell id="1GO8dZoF6yERBsI8h4hM-13" value="&lt;font style=&quot;font-size: 18px;&quot;&gt;name&lt;/font&gt;" style="ellipse;whiteSpace=wrap;html=1;" parent="1" vertex="1">
          <mxGeometry x="20" y="250" width="90" height="40" as="geometry" />
        </mxCell>
        <mxCell id="1GO8dZoF6yERBsI8h4hM-14" value="" style="endArrow=none;html=1;rounded=0;entryX=0.25;entryY=0;entryDx=0;entryDy=0;" parent="1" source="1GO8dZoF6yERBsI8h4hM-13" target="1GO8dZoF6yERBsI8h4hM-2" edge="1">
          <mxGeometry width="50" height="50" relative="1" as="geometry">
            <mxPoint x="250" y="410" as="sourcePoint" />
            <mxPoint x="300" y="360" as="targetPoint" />
          </mxGeometry>
        </mxCell>
        <mxCell id="1GO8dZoF6yERBsI8h4hM-15" value="" style="endArrow=none;html=1;rounded=0;exitX=0;exitY=0;exitDx=0;exitDy=0;" parent="1" source="1GO8dZoF6yERBsI8h4hM-3" target="1GO8dZoF6yERBsI8h4hM-9" edge="1">
          <mxGeometry width="50" height="50" relative="1" as="geometry">
            <mxPoint x="250" y="410" as="sourcePoint" />
            <mxPoint x="300" y="360" as="targetPoint" />
          </mxGeometry>
        </mxCell>
        <mxCell id="1GO8dZoF6yERBsI8h4hM-16" value="&lt;font style=&quot;font-size: 17px;&quot;&gt;City&lt;/font&gt;" style="ellipse;whiteSpace=wrap;html=1;" parent="1" vertex="1">
          <mxGeometry x="270" y="260" width="90" height="40" as="geometry" />
        </mxCell>
        <mxCell id="1GO8dZoF6yERBsI8h4hM-17" value="postal_code" style="ellipse;whiteSpace=wrap;html=1;" parent="1" vertex="1">
          <mxGeometry x="370" y="300" width="90" height="40" as="geometry" />
        </mxCell>
        <mxCell id="1GO8dZoF6yERBsI8h4hM-19" value="&lt;font style=&quot;font-size: 17px;&quot;&gt;State&lt;/font&gt;" style="ellipse;whiteSpace=wrap;html=1;" parent="1" vertex="1">
          <mxGeometry x="335" y="230" width="90" height="40" as="geometry" />
        </mxCell>
        <mxCell id="1GO8dZoF6yERBsI8h4hM-20" value="" style="endArrow=none;html=1;rounded=0;exitX=0.342;exitY=0.05;exitDx=0;exitDy=0;exitPerimeter=0;" parent="1" source="1GO8dZoF6yERBsI8h4hM-3" target="1GO8dZoF6yERBsI8h4hM-16" edge="1">
          <mxGeometry width="50" height="50" relative="1" as="geometry">
            <mxPoint x="250" y="410" as="sourcePoint" />
            <mxPoint x="300" y="360" as="targetPoint" />
          </mxGeometry>
        </mxCell>
        <mxCell id="1GO8dZoF6yERBsI8h4hM-21" value="" style="endArrow=none;html=1;rounded=0;exitX=0.567;exitY=0.025;exitDx=0;exitDy=0;exitPerimeter=0;" parent="1" source="1GO8dZoF6yERBsI8h4hM-3" target="1GO8dZoF6yERBsI8h4hM-19" edge="1">
          <mxGeometry width="50" height="50" relative="1" as="geometry">
            <mxPoint x="250" y="410" as="sourcePoint" />
            <mxPoint x="300" y="360" as="targetPoint" />
          </mxGeometry>
        </mxCell>
        <mxCell id="1GO8dZoF6yERBsI8h4hM-22" value="" style="endArrow=none;html=1;rounded=0;exitX=0.75;exitY=0;exitDx=0;exitDy=0;" parent="1" source="1GO8dZoF6yERBsI8h4hM-3" target="1GO8dZoF6yERBsI8h4hM-17" edge="1">
          <mxGeometry width="50" height="50" relative="1" as="geometry">
            <mxPoint x="250" y="410" as="sourcePoint" />
            <mxPoint x="300" y="360" as="targetPoint" />
          </mxGeometry>
        </mxCell>
        <mxCell id="1GO8dZoF6yERBsI8h4hM-23" value="" style="endArrow=none;dashed=1;html=1;rounded=0;strokeWidth=2;" parent="1" edge="1">
          <mxGeometry width="50" height="50" relative="1" as="geometry">
            <mxPoint x="240" y="330" as="sourcePoint" />
            <mxPoint x="290" y="330" as="targetPoint" />
          </mxGeometry>
        </mxCell>
        <mxCell id="1GO8dZoF6yERBsI8h4hM-24" value="" style="endArrow=none;dashed=1;html=1;rounded=0;strokeWidth=2;" parent="1" edge="1">
          <mxGeometry width="50" height="50" relative="1" as="geometry">
            <mxPoint x="390" y="330" as="sourcePoint" />
            <mxPoint x="440" y="330.5" as="targetPoint" />
          </mxGeometry>
        </mxCell>
        <mxCell id="1GO8dZoF6yERBsI8h4hM-25" value="&lt;font style=&quot;font-size: 14px;&quot;&gt;all other attributes&lt;br&gt;&lt;/font&gt;" style="ellipse;whiteSpace=wrap;html=1;" parent="1" vertex="1">
          <mxGeometry x="70" y="290" width="90" height="40" as="geometry" />
        </mxCell>
        <mxCell id="1GO8dZoF6yERBsI8h4hM-26" value="" style="endArrow=none;html=1;rounded=0;exitX=0.5;exitY=0;exitDx=0;exitDy=0;" parent="1" source="1GO8dZoF6yERBsI8h4hM-2" target="1GO8dZoF6yERBsI8h4hM-25" edge="1">
          <mxGeometry width="50" height="50" relative="1" as="geometry">
            <mxPoint x="250" y="410" as="sourcePoint" />
            <mxPoint x="300" y="360" as="targetPoint" />
          </mxGeometry>
        </mxCell>
        <mxCell id="1GO8dZoF6yERBsI8h4hM-27" value="&lt;font style=&quot;font-size: 18px;&quot;&gt;stars&lt;/font&gt;" style="ellipse;whiteSpace=wrap;html=1;" parent="1" vertex="1">
          <mxGeometry x="120" y="250" width="90" height="40" as="geometry" />
        </mxCell>
        <mxCell id="1GO8dZoF6yERBsI8h4hM-28" value="" style="endArrow=none;html=1;rounded=0;exitX=1;exitY=0;exitDx=0;exitDy=0;" parent="1" source="1GO8dZoF6yERBsI8h4hM-2" target="1GO8dZoF6yERBsI8h4hM-27" edge="1">
          <mxGeometry width="50" height="50" relative="1" as="geometry">
            <mxPoint x="250" y="410" as="sourcePoint" />
            <mxPoint x="300" y="360" as="targetPoint" />
          </mxGeometry>
        </mxCell>
        <mxCell id="1GO8dZoF6yERBsI8h4hM-32" style="edgeStyle=orthogonalEdgeStyle;rounded=0;orthogonalLoop=1;jettySize=auto;html=1;exitX=0.5;exitY=0;exitDx=0;exitDy=0;shape=link;" parent="1" source="1GO8dZoF6yERBsI8h4hM-29" target="1GO8dZoF6yERBsI8h4hM-30" edge="1">
          <mxGeometry relative="1" as="geometry" />
        </mxCell>
        <mxCell id="1GO8dZoF6yERBsI8h4hM-29" value="&lt;font style=&quot;font-size: 18px;&quot;&gt;checkin&lt;/font&gt;" style="rounded=0;whiteSpace=wrap;html=1;" parent="1" vertex="1">
          <mxGeometry x="40" y="530" width="120" height="40" as="geometry" />
        </mxCell>
        <mxCell id="1GO8dZoF6yERBsI8h4hM-30" value="&lt;div&gt;&lt;font style=&quot;font-size: 18px;&quot;&gt;Has&lt;/font&gt;&lt;/div&gt;&lt;div&gt;&lt;font style=&quot;font-size: 18px;&quot;&gt;a&lt;br&gt;&lt;/font&gt;&lt;/div&gt;" style="rhombus;whiteSpace=wrap;html=1;" parent="1" vertex="1">
          <mxGeometry x="60" y="430" width="80" height="80" as="geometry" />
        </mxCell>
        <mxCell id="1GO8dZoF6yERBsI8h4hM-33" value="&lt;font size=&quot;1&quot;&gt;&lt;u style=&quot;font-size: 15px;&quot;&gt;business_id&lt;/u&gt;&lt;/font&gt;" style="ellipse;whiteSpace=wrap;html=1;" parent="1" vertex="1">
          <mxGeometry x="-50" y="480" width="90" height="40" as="geometry" />
        </mxCell>
        <mxCell id="1GO8dZoF6yERBsI8h4hM-34" value="" style="endArrow=none;html=1;rounded=0;entryX=0;entryY=0;entryDx=0;entryDy=0;" parent="1" source="1GO8dZoF6yERBsI8h4hM-33" target="1GO8dZoF6yERBsI8h4hM-29" edge="1">
          <mxGeometry width="50" height="50" relative="1" as="geometry">
            <mxPoint x="250" y="410" as="sourcePoint" />
            <mxPoint x="300" y="360" as="targetPoint" />
          </mxGeometry>
        </mxCell>
        <mxCell id="AokPKxqXHjxlIk5qfDZU-15" style="edgeStyle=orthogonalEdgeStyle;rounded=0;orthogonalLoop=1;jettySize=auto;html=1;endArrow=none;endFill=0;" edge="1" parent="1" source="1GO8dZoF6yERBsI8h4hM-35" target="AokPKxqXHjxlIk5qfDZU-14">
          <mxGeometry relative="1" as="geometry" />
        </mxCell>
        <mxCell id="1GO8dZoF6yERBsI8h4hM-35" value="&lt;font style=&quot;font-size: 18px;&quot;&gt;user&lt;/font&gt;" style="rounded=0;whiteSpace=wrap;html=1;" parent="1" vertex="1">
          <mxGeometry x="-510" y="360" width="120" height="40" as="geometry" />
        </mxCell>
        <mxCell id="AokPKxqXHjxlIk5qfDZU-3" style="edgeStyle=orthogonalEdgeStyle;rounded=0;orthogonalLoop=1;jettySize=auto;html=1;exitX=0;exitY=0.5;exitDx=0;exitDy=0;entryX=1;entryY=0.5;entryDx=0;entryDy=0;endArrow=none;endFill=0;shape=link;" edge="1" parent="1" source="1GO8dZoF6yERBsI8h4hM-36" target="AokPKxqXHjxlIk5qfDZU-1">
          <mxGeometry relative="1" as="geometry" />
        </mxCell>
        <mxCell id="AokPKxqXHjxlIk5qfDZU-6" style="edgeStyle=orthogonalEdgeStyle;rounded=0;orthogonalLoop=1;jettySize=auto;html=1;exitX=1;exitY=0.5;exitDx=0;exitDy=0;entryX=0;entryY=0.5;entryDx=0;entryDy=0;endArrow=none;endFill=0;" edge="1" parent="1" source="1GO8dZoF6yERBsI8h4hM-36" target="AokPKxqXHjxlIk5qfDZU-4">
          <mxGeometry relative="1" as="geometry" />
        </mxCell>
        <mxCell id="1GO8dZoF6yERBsI8h4hM-36" value="&lt;font style=&quot;font-size: 18px;&quot;&gt;review&lt;/font&gt;" style="rounded=0;whiteSpace=wrap;html=1;" parent="1" vertex="1">
          <mxGeometry x="-240" y="360" width="120" height="40" as="geometry" />
        </mxCell>
        <mxCell id="AokPKxqXHjxlIk5qfDZU-2" style="edgeStyle=orthogonalEdgeStyle;rounded=0;orthogonalLoop=1;jettySize=auto;html=1;exitX=0;exitY=0.5;exitDx=0;exitDy=0;endArrow=none;endFill=0;" edge="1" parent="1" source="AokPKxqXHjxlIk5qfDZU-1" target="1GO8dZoF6yERBsI8h4hM-35">
          <mxGeometry relative="1" as="geometry" />
        </mxCell>
        <mxCell id="AokPKxqXHjxlIk5qfDZU-1" value="&lt;div&gt;&lt;font style=&quot;font-size: 18px;&quot;&gt;Writes a&lt;br&gt;&lt;/font&gt;&lt;/div&gt;" style="rhombus;whiteSpace=wrap;html=1;" vertex="1" parent="1">
          <mxGeometry x="-360" y="340" width="80" height="80" as="geometry" />
        </mxCell>
        <mxCell id="AokPKxqXHjxlIk5qfDZU-4" value="&lt;div&gt;&lt;font style=&quot;font-size: 18px;&quot;&gt;Has&lt;/font&gt;&lt;/div&gt;&lt;div&gt;&lt;font style=&quot;font-size: 18px;&quot;&gt;a&lt;br&gt;&lt;/font&gt;&lt;/div&gt;" style="rhombus;whiteSpace=wrap;html=1;" vertex="1" parent="1">
          <mxGeometry x="-80" y="340" width="80" height="80" as="geometry" />
        </mxCell>
        <mxCell id="AokPKxqXHjxlIk5qfDZU-7" value="&lt;u&gt;&lt;font style=&quot;font-size: 18px;&quot;&gt;user_id&lt;/font&gt;&lt;/u&gt;" style="ellipse;whiteSpace=wrap;html=1;" vertex="1" parent="1">
          <mxGeometry x="-570" y="280" width="90" height="40" as="geometry" />
        </mxCell>
        <mxCell id="AokPKxqXHjxlIk5qfDZU-9" value="" style="endArrow=none;html=1;rounded=0;exitX=0;exitY=0;exitDx=0;exitDy=0;" edge="1" parent="1" source="1GO8dZoF6yERBsI8h4hM-35" target="AokPKxqXHjxlIk5qfDZU-7">
          <mxGeometry width="50" height="50" relative="1" as="geometry">
            <mxPoint x="90" y="530" as="sourcePoint" />
            <mxPoint x="140" y="480" as="targetPoint" />
          </mxGeometry>
        </mxCell>
        <mxCell id="AokPKxqXHjxlIk5qfDZU-10" value="&lt;font style=&quot;font-size: 18px;&quot;&gt;elite&lt;/font&gt;" style="ellipse;whiteSpace=wrap;html=1;" vertex="1" parent="1">
          <mxGeometry x="-520" y="230" width="90" height="40" as="geometry" />
        </mxCell>
        <mxCell id="AokPKxqXHjxlIk5qfDZU-11" value="" style="endArrow=none;html=1;rounded=0;exitX=0.25;exitY=0;exitDx=0;exitDy=0;" edge="1" parent="1" source="1GO8dZoF6yERBsI8h4hM-35" target="AokPKxqXHjxlIk5qfDZU-10">
          <mxGeometry width="50" height="50" relative="1" as="geometry">
            <mxPoint x="-570" y="530" as="sourcePoint" />
            <mxPoint x="-520" y="480" as="targetPoint" />
          </mxGeometry>
        </mxCell>
        <mxCell id="AokPKxqXHjxlIk5qfDZU-12" value="&lt;font style=&quot;font-size: 14px;&quot;&gt;other attributes&lt;br&gt;&lt;/font&gt;" style="ellipse;whiteSpace=wrap;html=1;" vertex="1" parent="1">
          <mxGeometry x="-460" y="280" width="90" height="40" as="geometry" />
        </mxCell>
        <mxCell id="AokPKxqXHjxlIk5qfDZU-13" value="" style="endArrow=none;html=1;rounded=0;exitX=0.5;exitY=0;exitDx=0;exitDy=0;" edge="1" parent="1" source="1GO8dZoF6yERBsI8h4hM-35" target="AokPKxqXHjxlIk5qfDZU-12">
          <mxGeometry width="50" height="50" relative="1" as="geometry">
            <mxPoint x="-570" y="530" as="sourcePoint" />
            <mxPoint x="-520" y="480" as="targetPoint" />
          </mxGeometry>
        </mxCell>
        <mxCell id="AokPKxqXHjxlIk5qfDZU-16" style="edgeStyle=orthogonalEdgeStyle;rounded=0;orthogonalLoop=1;jettySize=auto;html=1;exitX=0.5;exitY=1;exitDx=0;exitDy=0;entryX=0.25;entryY=1;entryDx=0;entryDy=0;endArrow=none;endFill=0;" edge="1" parent="1" source="AokPKxqXHjxlIk5qfDZU-14" target="1GO8dZoF6yERBsI8h4hM-35">
          <mxGeometry relative="1" as="geometry" />
        </mxCell>
        <mxCell id="AokPKxqXHjxlIk5qfDZU-14" value="&lt;font style=&quot;font-size: 16px;&quot;&gt;Has friends&lt;/font&gt;" style="rhombus;whiteSpace=wrap;html=1;" vertex="1" parent="1">
          <mxGeometry x="-650" y="340" width="80" height="80" as="geometry" />
        </mxCell>
        <mxCell id="AokPKxqXHjxlIk5qfDZU-17" value="&lt;u&gt;&lt;font style=&quot;font-size: 18px;&quot;&gt;review_id&lt;/font&gt;&lt;/u&gt;" style="ellipse;whiteSpace=wrap;html=1;" vertex="1" parent="1">
          <mxGeometry x="-300" y="300" width="90" height="40" as="geometry" />
        </mxCell>
        <mxCell id="AokPKxqXHjxlIk5qfDZU-18" value="" style="endArrow=none;html=1;rounded=0;" edge="1" parent="1" source="1GO8dZoF6yERBsI8h4hM-36" target="AokPKxqXHjxlIk5qfDZU-17">
          <mxGeometry width="50" height="50" relative="1" as="geometry">
            <mxPoint y="530" as="sourcePoint" />
            <mxPoint x="50" y="480" as="targetPoint" />
          </mxGeometry>
        </mxCell>
        <mxCell id="AokPKxqXHjxlIk5qfDZU-19" value="&lt;font style=&quot;font-size: 18px;&quot;&gt;user_id&lt;/font&gt;" style="ellipse;whiteSpace=wrap;html=1;" vertex="1" parent="1">
          <mxGeometry x="-240" y="260" width="90" height="40" as="geometry" />
        </mxCell>
        <mxCell id="AokPKxqXHjxlIk5qfDZU-20" value="" style="endArrow=none;html=1;rounded=0;" edge="1" parent="1" source="1GO8dZoF6yERBsI8h4hM-36" target="AokPKxqXHjxlIk5qfDZU-19">
          <mxGeometry width="50" height="50" relative="1" as="geometry">
            <mxPoint y="530" as="sourcePoint" />
            <mxPoint x="50" y="480" as="targetPoint" />
          </mxGeometry>
        </mxCell>
        <mxCell id="AokPKxqXHjxlIk5qfDZU-21" value="&lt;font size=&quot;1&quot;&gt;&lt;span style=&quot;font-size: 15px;&quot;&gt;business_id&lt;/span&gt;&lt;/font&gt;" style="ellipse;whiteSpace=wrap;html=1;" vertex="1" parent="1">
          <mxGeometry x="-180" y="300" width="90" height="40" as="geometry" />
        </mxCell>
        <mxCell id="AokPKxqXHjxlIk5qfDZU-22" value="" style="endArrow=none;html=1;rounded=0;" edge="1" parent="1" source="1GO8dZoF6yERBsI8h4hM-36" target="AokPKxqXHjxlIk5qfDZU-21">
          <mxGeometry width="50" height="50" relative="1" as="geometry">
            <mxPoint y="530" as="sourcePoint" />
            <mxPoint x="50" y="480" as="targetPoint" />
          </mxGeometry>
        </mxCell>
        <mxCell id="AokPKxqXHjxlIk5qfDZU-23" value="&lt;font style=&quot;font-size: 18px;&quot;&gt;text&lt;/font&gt;" style="ellipse;whiteSpace=wrap;html=1;" vertex="1" parent="1">
          <mxGeometry x="-290" y="420" width="90" height="40" as="geometry" />
        </mxCell>
        <mxCell id="AokPKxqXHjxlIk5qfDZU-25" value="" style="endArrow=none;html=1;rounded=0;entryX=0.25;entryY=1;entryDx=0;entryDy=0;" edge="1" parent="1" source="AokPKxqXHjxlIk5qfDZU-23" target="1GO8dZoF6yERBsI8h4hM-36">
          <mxGeometry width="50" height="50" relative="1" as="geometry">
            <mxPoint x="-50" y="530" as="sourcePoint" />
            <mxPoint x="-180" y="420" as="targetPoint" />
          </mxGeometry>
        </mxCell>
        <mxCell id="AokPKxqXHjxlIk5qfDZU-26" value="&lt;font style=&quot;font-size: 14px;&quot;&gt;all other attributes&lt;br&gt;&lt;/font&gt;" style="ellipse;whiteSpace=wrap;html=1;" vertex="1" parent="1">
          <mxGeometry x="-190" y="420" width="90" height="40" as="geometry" />
        </mxCell>
        <mxCell id="AokPKxqXHjxlIk5qfDZU-27" value="" style="endArrow=none;html=1;rounded=0;" edge="1" parent="1" source="AokPKxqXHjxlIk5qfDZU-26" target="1GO8dZoF6yERBsI8h4hM-36">
          <mxGeometry width="50" height="50" relative="1" as="geometry">
            <mxPoint x="-50" y="530" as="sourcePoint" />
            <mxPoint y="480" as="targetPoint" />
          </mxGeometry>
        </mxCell>
      </root>
    </mxGraphModel>
  </diagram>
</mxfile>
